PathFileType	4	(X/Y/Z)	C:\Git\research_data\torsion_deformities_healthy_kinematics\simulations\TD07\pre\static_01\markers.trc
DataRate	CameraRate	NumFrames	NumMarkers	Units	OrigDataRate	OrigDataStartFrame	OrigNumFrames
200.000000	200.000000	4	34	mm	200.000000	75	120
Frame#	Time	C7			T10			CLAV			STRN			RBAK			LASI			RASI			SACR			RT1			RT2			RT3			RKNE			RS1			RS2			RS3			RANK			RHEE			RTOE			RM5D			LT1			LT2			LT3			LKNE			LS1			LS2			LS3			LANK			LHEE			LTOE			LM5D			RANKM			LANKM			RKNEM			LKNEM			
		X1	Y1	Z1	X2	Y2	Z2	X3	Y3	Z3	X4	Y4	Z4	X5	Y5	Z5	X6	Y6	Z6	X7	Y7	Z7	X8	Y8	Z8	X9	Y9	Z9	X10	Y10	Z10	X11	Y11	Z11	X12	Y12	Z12	X13	Y13	Z13	X14	Y14	Z14	X15	Y15	Z15	X16	Y16	Z16	X17	Y17	Z17	X18	Y18	Z18	X19	Y19	Z19	X20	Y20	Z20	X21	Y21	Z21	X22	Y22	Z22	X23	Y23	Z23	X24	Y24	Z24	X25	Y25	Z25	X26	Y26	Z26	X27	Y27	Z27	X28	Y28	Z28	X29	Y29	Z29	X30	Y30	Z30	X31	Y31	Z31	X32	Y32	Z32	X33	Y33	Z33	X34	Y34	Z34	

76	0.375	653.7818603515624	1228.473266601562	348.0343322753906	663.3990478515624	1004.912170410156	344.8669128417968	668.0323486328124	1200.46142578125	221.3816223144531	668.6084594726561	1068.266845703125	153.0574798583984	756.4849853515624	1096.128295898438	359.1297302246093	546.6452026367188	797.4243774414062	208.0993194580078	802.4752197265625	833.1415405273438	198.4726257324218	673.0321655273438	853.874755859375	357.1370239257812	864.7510986328125	607.4534912109375	309.4409179687499	862.1438598632812	547.0877685546875	337.7623596191406	875.3030395507812	545.7759399414062	288.3406372070312	881.3653564453125	442.4282531738282	299.3698730468749	915.7052001953125	350.4779357910157	351.6607666015624	922.2144775390625	287.5229797363282	376.7189636230468	937.7631225585938	293.1611633300782	326.6032104492187	962.250244140625	87.37499237060553	321.9371032714843	922.9813842773438	45.92042160034185	358.8472290039062	978.8757934570312	47.58301544189459	167.4928131103515	1003.158203125	34.43105697631842	257.6788635253906	481.9797668457031	615.69970703125	255.8587799072265	472.7334594726562	559.5684814453125	291.3035583496093	481.5664062499999	551.2540283203125	240.7349090576172	452.6513061523438	421.9630432128906	304.9939575195312	400.7493286132812	310.1697692871094	318.9483032226562	386.0830993652344	255.4745483398438	353.5088195800781	381.2456665039062	248.7484436035157	302.8836364746094	348.9377746582031	71.21820068359378	335.0357666015625	387.2205810546875	43.31488418579104	357.61376953125	297.8556213378906	42.67967605590822	178.6968841552734	286.2548522949219	29.74394607543947	273.34716796875	888.339111328125	74.98338317871099	278.3767395019531	407.3179321289062	67.51324462890628	271.8619079589844	792.49951171875	404.7592773437501	268.1792297363281	542.0172729492188	383.2876281738282	261.6684265136718	
77	0.38	653.7797851562499	1228.491088867188	348.0068664550781	663.4276733398436	1004.916076660156	344.8502197265624	668.0085449218749	1200.469360351562	221.3469696044922	668.5551757812499	1068.2802734375	153.014892578125	756.4921264648436	1096.128784179688	359.0758972167968	546.6227416992188	797.4346923828125	208.1073150634765	802.4500732421875	833.13916015625	198.4068908691406	673.0559692382812	853.8744506835938	357.1068115234374	864.7366333007812	607.46142578125	309.3834838867187	862.1259765625	547.0961303710938	337.7342834472656	875.2946166992188	545.7780151367188	288.2877807617187	881.3583374023438	442.4332885742188	299.3365783691406	915.702392578125	350.4845275878907	351.6289978027343	922.2129516601562	287.5395812988282	376.6934509277343	937.7605590820312	293.1659545898438	326.5810241699218	962.2459716796875	87.37754821777349	321.9356689453124	922.9805297851562	45.92051696777349	358.8462219238281	978.8737182617188	47.57982635498053	167.4934082031249	1003.162231445312	34.43165969848639	257.6702575683593	481.9656372070312	615.705810546875	255.8647308349609	472.7257385253906	559.5723266601562	291.3064575195312	481.5349731445312	551.2672119140625	240.7326202392578	452.6461181640625	421.9650573730469	304.9861450195312	400.7468566894531	310.1707153320312	318.9429016113281	386.0840759277344	255.4758605957032	353.5031127929688	381.2440490722656	248.7485809326172	302.879638671875	348.9443969726562	71.21890258789065	335.0339965820312	387.2229614257812	43.31679153442385	357.61279296875	297.8542175292969	42.67921066284182	178.6962585449218	286.2561340332031	29.74484252929689	273.3465881347656	888.3353881835938	74.98175811767584	278.3765563964843	407.3197631835938	67.51233673095706	271.859130859375	792.49072265625	404.7575683593751	268.1604003906249	542.0098876953125	383.2912292480469	261.6557006835937	
78	0.385	653.7783203124999	1228.50830078125	347.9794311523437	663.4564208984374	1004.919860839844	344.8330078124999	667.9849243164061	1200.477294921875	221.3125305175781	668.5010986328124	1068.293823242188	152.9720153808593	756.4991455078124	1096.128295898438	359.0213928222656	546.5999145507812	797.4450073242188	208.1141357421875	802.4244995117188	833.13671875	198.3388671874999	673.0801391601562	853.8739624023438	357.0748596191406	864.7222290039062	607.4695434570312	309.3241271972656	862.1093139648438	547.1045532226562	337.7032470703124	875.2860107421875	545.780029296875	288.2331542968749	881.351318359375	442.4383239746094	299.3019104003906	915.6992797851562	350.4913330078126	351.5957336425781	922.211181640625	287.5567626953126	376.6671752929687	937.7579956054688	293.1707153320313	326.5580444335937	962.2415771484375	87.38012695312506	321.9341735839843	922.9796142578125	45.9206161499024	358.8451538085937	978.87158203125	47.57652664184576	167.4940032958984	1003.166381835938	34.43226242065436	257.6613464355468	481.9514770507812	615.7118530273438	255.86962890625	472.7180786132812	559.5762329101562	291.3083496093749	481.5029907226562	551.280517578125	240.7291259765625	452.6409912109375	421.9671020507812	304.9776000976562	400.7444763183594	310.1717224121094	318.93701171875	386.0850830078125	255.4771270751953	353.4971008300781	381.2424926757812	248.7487030029297	302.8753051757812	348.9511413574219	71.21965789794925	335.0321044921875	387.2253723144531	43.31879806518557	357.6118469238281	297.852783203125	42.67875671386721	178.6956024169922	286.2574462890625	29.74579238891603	273.3459777832031	888.33154296875	74.9800643920899	278.3762512207031	407.3216552734375	67.51136016845706	271.8562927246094	792.48193359375	404.7558288574219	268.1404724121093	542.0025024414062	383.2947387695313	261.6420593261718	
79	0.39	653.7775878906249	1228.525024414062	347.9520263671874	663.4851684570311	1004.923522949219	344.8153076171874	667.9614868164061	1200.484985351562	221.278335571289	668.4462280273436	1068.307373046875	152.9288330078125	756.5060424804686	1096.126586914062	358.9661560058593	546.5767211914062	797.4552612304688	208.1197967529297	802.3984985351562	833.1343994140625	198.268569946289	673.1047973632812	853.8733520507812	357.0412292480468	864.707763671875	607.4776611328125	309.2627868652343	862.0938110351562	547.113037109375	337.6691894531249	875.2772827148438	545.7820434570312	288.1766967773437	881.3442993164062	442.4433593750001	299.2658386230468	915.6959838867188	350.4983825683594	351.5610046386718	922.2091674804688	287.5744934082032	376.6400756835937	937.7554321289062	293.1754455566407	326.5342712402343	962.2369995117188	87.38273620605474	321.9327087402343	922.9786376953125	45.92072296142584	358.8439941406249	978.8694458007812	47.57311248779303	167.4945831298828	1003.170715332031	34.4328689575196	257.6521606445312	481.9372253417968	615.7178344726562	255.8734588623047	472.7105407714843	559.580078125	291.3092346191406	481.4704284667968	551.2940063476562	240.7244415283203	452.6359558105469	421.9691162109375	304.9682922363281	400.7421875	310.1727294921875	318.9305725097656	386.0861511230469	255.4783630371094	353.4907836914062	381.2409973144531	248.7487945556641	302.8705444335938	348.9579467773438	71.22045898437503	335.0301818847656	387.2277526855469	43.32089614868166	357.6109008789062	297.8513488769531	42.6783142089844	178.6949157714843	286.2587585449219	29.74679756164553	273.3453369140625	888.3275146484375	74.97830200195318	278.3758544921874	407.3235778808594	67.51029968261722	271.8533325195312	792.4730834960938	404.7540588378907	268.1194458007812	541.9951782226562	383.2981262207032	261.6275329589843	
